<svg viewBox="0 0 109 40" fill="currentColor" xmlns="http://www.w3.org/2000/svg">
  <path d="M1.629 8C7.752-2.667 32.246-2.667 38.37 8c2.505 4.364 1.931 10.513-.456 16.257a9.7 9.7 0 0 0-3-1.902c.03-.832-.024-1.665-.134-2.46A24.33 24.33 0 0 0 26.153 5.12c-.966-.742-2.072-1.424-3.25-1.882-.934-.362-1.913-.583-2.904-.583-.993 0-1.974.222-2.91.586-1.176.458-2.28 1.138-3.245 1.879a24.33 24.33 0 0 0-8.627 14.775c-.186 1.337-.22 2.784.051 4.15.165.829.443 1.628.867 2.353q.31.53.716 1.01a8 8 0 0 0 .925.932c3.117 2.703 8.657 3.89 13.908 3.568.047.801.19 1.576.421 2.313-3.5.254-7.121-.125-10.261-1.14q.758.697 1.547 1.286l-.002-.001c2.125 1.582 4.392 2.541 6.608 2.541 1.04 0 2.067-.223 3.054-.588a9.7 9.7 0 0 0 2.13 2.47c-1.692.774-3.436 1.21-5.181 1.21C7.753 40-4.495 18.667 1.629 8m8.587-3.13q-.426.174-.85.373c-2.018.949-3.974 2.34-5.089 4.283-.92 1.602-1.288 3.563-1.216 5.693l.002-.003c.026.762.11 1.546.243 2.343a26.64 26.64 0 0 1 7.55-12.919q-.322.111-.64.23m18.924-.23a26.63 26.63 0 0 1 7.536 12.865c.027-.16.058-.32.083-.48.338-2.476.228-5.283-1.042-7.498-1.27-2.216-3.635-3.714-5.937-4.657a28 28 0 0 0-.64-.23"/>
  <path d="M19.998 6.22c1.214 0 2.731.947 3.654 1.656a21.77 21.77 0 0 1 7.565 12.957c.035.252.063.535.083.834-4.311.014-7.958 2.851-9.189 6.76-1.075.13-2.06.189-2.81.189-2.887 0-9.198-.816-10.786-3.608-.59-1.04-.493-2.811-.316-3.955a22.2 22.2 0 0 1 7.765-12.957c.369-.28.83-.597 1.33-.878.842-.526 1.848-.997 2.704-.997M15.66 23.393h2.352V18.06l4.416 5.333h1.909V12.938h-2.353v5.277l-4.374-5.277h-1.95z"/>
  <path d="M31.452 31.415a1.31 1.31 0 0 1 1.17.68q.174.312.17.714.004.398-.17.715a1.31 1.31 0 0 1-1.174.684 1.3 1.3 0 0 1-.69-.184 1.36 1.36 0 0 1-.476-.505 1.47 1.47 0 0 1 .21-1.698 1.3 1.3 0 0 1 .96-.407"/>
  <path d="M31.333 24.334a7 7 0 1 1 0 14 7 7 0 0 1 0-14m.17 2.5q-.835 0-1.51.32-.671.318-1.156.92-.48.603-.74 1.467-.26.86-.264 1.942-.005 1.198.289 2.032.294.829.804 1.343.51.51 1.165.745.655.23 1.37.23.999 0 1.756-.39.76-.388 1.19-1.085.43-.702.426-1.617.004-.813-.336-1.442a2.56 2.56 0 0 0-.94-.997q-.6-.363-1.382-.363-.489 0-.927.154-.434.15-.77.432a1.9 1.9 0 0 0-.514.676h-.056q.01-1.168.4-1.866.396-.696 1.195-.696.435 0 .749.218.319.214.412.629h2.071a2.8 2.8 0 0 0-.498-1.335 3 3 0 0 0-1.122-.958q-.698-.36-1.612-.36"/>
  <path d="m56.165 25.233-5.626-9.586q-.195-.335-.37-.67a23 23 0 0 1-.304-.604 6 6 0 0 1-.26-.626h-.043q0 .313.022.67 0 .315.01.682.012.37.012.749v9.384H47V9.055h2.627l5.495 9.34.347.67q.174.336.304.604.153.312.282.625h.043q-.022-.313-.022-.692-.022-.314-.022-.693V9.055h2.628v16.178h-2.519zm14.42-.604a7 7 0 0 1-1.857.616c-.833.174-1.68.26-2.53.256q-2.649 0-3.964-1.016a3.37 3.37 0 0 1-1.004-1.268 3.5 3.5 0 0 1-.31-1.604 3.26 3.26 0 0 1 .576-1.999c.404-.53.93-.95 1.531-1.219a8.3 8.3 0 0 1 2.194-.647 23 23 0 0 1 2.562-.267v-.625a1.5 1.5 0 0 0-.12-.746 1.45 1.45 0 0 0-.466-.584 2.86 2.86 0 0 0-1.607-.39 6 6 0 0 0-.858.066 12 12 0 0 0-1.715.39q-.36.108-.706.258l-.74-2.056a12.5 12.5 0 0 1 1.9-.593c.8-.189 1.62-.283 2.442-.279q2.236 0 3.454.995 1.215.995 1.216 3.294v7.418zm-2.801-5.206q-.825.044-1.564.123a4.8 4.8 0 0 0-1.292.302c-.342.13-.648.344-.89.625a1.62 1.62 0 0 0-.337 1.073c-.011.255.04.51.148.74s.27.429.471.578a2.93 2.93 0 0 0 1.792.471q.48 0 .955-.067.37-.04.717-.179zm8.643-9.811c.003.22-.04.44-.126.642a1.55 1.55 0 0 1-.373.531c-.325.31-.752.481-1.195.481s-.87-.172-1.195-.481a1.54 1.54 0 0 1-.373-.53 1.6 1.6 0 0 1-.126-.643c-.004-.22.04-.437.125-.638.087-.2.214-.38.374-.524.33-.302.754-.47 1.195-.47.44 0 .866.168 1.195.47a1.546 1.546 0 0 1 .5 1.163zm-3.17 15.618V13.188h2.953v12.044zm11.531-.156q-.36.166-.749.234-.511.103-1.031.1-1.695 0-2.509-.949-.814-.95-.814-2.849v-6.14h-1.498v-2.281h1.498v-2.682l2.91-.87v3.552h2.194v2.28h-2.192v5.944c-.021.191.004.385.072.564s.178.338.319.464c.28.2.615.302.955.29q.236 0 .467-.056.195-.044.38-.123v2.525zm12.075-5.876a8.7 8.7 0 0 1-.347 2.502 5.8 5.8 0 0 1-1.02 2 4.8 4.8 0 0 1-1.662 1.318 5.6 5.6 0 0 1-4.538 0 4.8 4.8 0 0 1-1.662-1.319 5.8 5.8 0 0 1-1.02-2 8.7 8.7 0 0 1-.347-2.502 8.6 8.6 0 0 1 .347-2.491 5.8 5.8 0 0 1 1.02-1.99 4.8 4.8 0 0 1 1.662-1.317 5.6 5.6 0 0 1 4.539 0c.642.307 1.21.757 1.661 1.318.464.588.81 1.263 1.02 1.989.238.808.354 1.648.347 2.492m-2.953-.023a5.75 5.75 0 0 0-.587-2.837 2.1 2.1 0 0 0-.748-.754 2 2 0 0 0-2.023 0c-.308.18-.566.44-.748.754a5.75 5.75 0 0 0-.586 2.837c-.05.979.151 1.954.586 2.827.184.31.442.567.75.745a2.02 2.02 0 0 0 2.018 0c.308-.178.567-.435.75-.745a5.7 5.7 0 0 0 .588-2.825zm11.966 6.055v-7.932a1.93 1.93 0 0 0-.521-1.43 2.1 2.1 0 0 0-1.543-.514 5.3 5.3 0 0 0-.987.089q-.394.07-.771.202v9.585H99.1V13.79a12 12 0 0 1 4.67-.872q2.628 0 3.854 1.05 1.227 1.05 1.227 3.017v8.245zM51.606 33.956c.012.273-.04.546-.154.793a1.7 1.7 0 0 1-.497.626 3.05 3.05 0 0 1-1.9.507q-.27 0-.538-.028a6 6 0 0 1-.525-.076 5 5 0 0 1-.47-.115 3 3 0 0 1-.383-.14v-6.286q.41-.18.849-.258a5.4 5.4 0 0 1 1.046-.099c.35-.005.7.039 1.04.132.268.073.521.198.743.37.191.15.344.346.444.571.1.233.15.484.146.737q.003.293-.095.568-.09.247-.247.455a1.4 1.4 0 0 1-.346.324q-.18.12-.387.183v.019a1.8 1.8 0 0 1 .839.53q.201.225.315.507c.084.216.125.447.12.68m-1.184-3.172a1 1 0 0 0-.082-.443 1 1 0 0 0-.265-.36 1.57 1.57 0 0 0-1.041-.293q-.257 0-.511.042a2 2 0 0 0-.402.109v2.083h.885q.317.009.63-.056a1.1 1.1 0 0 0 .41-.197.9.9 0 0 0 .274-.362 1.3 1.3 0 0 0 .1-.52zm.164 3.107a1.06 1.06 0 0 0-.117-.565 1.03 1.03 0 0 0-.394-.413 1.4 1.4 0 0 0-.42-.17 3 3 0 0 0-.62-.054h-.913v2.234q.208.066.424.103.251.045.507.047c.403.029.804-.077 1.144-.3a1 1 0 0 0 .3-.391c.068-.154.098-.322.088-.49zm6.514-.094c.006.303-.052.604-.169.882-.107.249-.265.47-.465.648-.205.18-.442.316-.698.403-.279.096-.572.144-.866.14a2.6 2.6 0 0 1-.867-.14 2.1 2.1 0 0 1-.698-.404 1.8 1.8 0 0 1-.465-.647 2.2 2.2 0 0 1-.168-.882v-4.814h1.03v4.825c-.003.167.027.333.089.488.056.138.142.262.25.362q.166.148.37.225.222.081.458.08.236.001.458-.08.205-.076.37-.225c.108-.1.193-.224.25-.362q.094-.234.09-.488v-4.824H57.1zm4.926.076c.005.285-.048.568-.155.83-.1.244-.253.46-.446.634-.207.183-.448.32-.707.404-.3.097-.612.145-.926.14q-.463.003-.916-.098a2.7 2.7 0 0 1-.726-.258l.356-.92q.271.148.566.229.335.099.683.1c.316.015.627-.079.885-.267.11-.087.199-.2.258-.33a.9.9 0 0 0 .08-.416.8.8 0 0 0-.092-.387 1 1 0 0 0-.232-.3 1.7 1.7 0 0 0-.338-.235 6 6 0 0 0-.401-.197 11 11 0 0 1-.592-.31 2.8 2.8 0 0 1-.546-.396 1.699 1.699 0 0 1-.557-1.3 2 2 0 0 1 .15-.794c.098-.23.243-.434.425-.6.192-.172.415-.303.657-.385a2.6 2.6 0 0 1 .857-.136c.29-.003.58.031.862.103q.331.08.625.253l-.328.864a3 3 0 0 0-.493-.207 2 2 0 0 0-.629-.103 1.2 1.2 0 0 0-.793.249.866.866 0 0 0-.3.7.77.77 0 0 0 .095.384q.1.174.25.304.166.144.356.249.2.114.411.206.282.132.575.296.29.164.534.395c.163.156.297.343.396.549.108.234.16.49.155.75zm1.122 1.904v-6.793h1.029v6.794zm6.35 0-2.703-4.512a3 3 0 0 1-.15-.267q-.069-.135-.123-.249a3 3 0 0 1-.111-.253h-.019q0 .132.01.272 0 .122.004.273.005.15.005.31v4.429h-.894v-6.796h.94l2.646 4.42.146.263q.075.133.128.244.064.132.118.253h.018a4 4 0 0 1-.01-.281 4 4 0 0 1-.008-.282v-4.617h.893v6.794zm2.225 0v-6.793h3.466v.892h-2.457v2h2.235v.872h-2.235v2.14h2.454v.891zm8.155-1.904c.004.285-.049.568-.155.83-.1.244-.254.46-.447.634-.207.183-.447.32-.707.404-.299.097-.611.145-.925.14q-.464.003-.917-.098a2.7 2.7 0 0 1-.725-.258l.356-.92q.269.148.565.229c.222.065.453.098.684.099.316.015.627-.079.885-.267.11-.087.199-.2.258-.33a.9.9 0 0 0 .08-.416.8.8 0 0 0-.09-.386 1 1 0 0 0-.233-.3 1.7 1.7 0 0 0-.337-.235 6 6 0 0 0-.402-.197 11 11 0 0 1-.592-.31 2.8 2.8 0 0 1-.547-.398 1.699 1.699 0 0 1-.557-1.3 2 2 0 0 1 .151-.793c.097-.23.242-.435.424-.6.192-.172.415-.303.657-.385a2.6 2.6 0 0 1 .857-.136c.29-.003.58.031.86.103q.331.08.626.253l-.33.864a3 3 0 0 0-.492-.207 2 2 0 0 0-.63-.103 1.2 1.2 0 0 0-.793.249.867.867 0 0 0-.3.7.77.77 0 0 0 .095.384q.1.173.251.305.165.143.354.249.201.114.411.206.282.132.575.296.29.164.534.395c.163.156.298.343.397.55.107.233.16.49.154.75zm4.706 0c.004.285-.048.568-.155.83-.1.244-.253.46-.446.634-.207.183-.448.32-.707.404-.3.097-.612.145-.925.14q-.465.003-.917-.098a2.7 2.7 0 0 1-.726-.258l.356-.92q.271.148.566.229.334.097.684.099c.315.015.627-.079.884-.267.111-.087.2-.2.258-.33a.9.9 0 0 0 .08-.416.8.8 0 0 0-.09-.386 1 1 0 0 0-.232-.3 1.7 1.7 0 0 0-.338-.235 6 6 0 0 0-.401-.197 11 11 0 0 1-.592-.31 2.8 2.8 0 0 1-.547-.398 1.7 1.7 0 0 1-.557-1.3 2 2 0 0 1 .15-.793c.097-.23.242-.435.424-.6.192-.172.415-.303.657-.385.276-.095.566-.14.857-.136q.437-.005.862.103.331.08.625.253l-.328.863a3 3 0 0 0-.493-.206 2 2 0 0 0-.629-.103 1.2 1.2 0 0 0-.793.248.868.868 0 0 0-.3.7.77.77 0 0 0 .095.385q.1.174.25.304.166.144.356.249.2.114.411.206.282.132.575.296.29.163.533.394c.164.157.299.343.397.55.108.234.16.491.154.75zm7.079 0c.004.285-.049.568-.155.83-.101.244-.254.46-.447.634-.207.183-.447.32-.707.404-.3.097-.612.145-.925.14q-.464.003-.917-.098a2.7 2.7 0 0 1-.725-.258l.355-.92q.271.148.566.229.334.097.684.099c.315.015.627-.079.885-.267a.91.91 0 0 0 .338-.745.8.8 0 0 0-.09-.387 1 1 0 0 0-.233-.3 1.7 1.7 0 0 0-.337-.235 6 6 0 0 0-.402-.197 11 11 0 0 1-.592-.31 2.8 2.8 0 0 1-.547-.398 1.7 1.7 0 0 1-.557-1.3 2 2 0 0 1 .152-.793c.097-.23.241-.435.424-.6.192-.172.415-.303.656-.385a2.6 2.6 0 0 1 .858-.136c.29-.003.58.031.862.103q.331.08.625.253l-.329.863a3 3 0 0 0-.492-.206 2 2 0 0 0-.63-.103 1.2 1.2 0 0 0-.793.248.868.868 0 0 0-.3.7.77.77 0 0 0 .095.385q.1.174.25.304.166.144.356.249.201.114.411.206.282.132.575.296.29.163.534.394c.163.157.298.343.397.55.107.234.16.49.153.75zm5.51-.076c.005.303-.053.604-.17.882-.106.249-.265.47-.465.648-.205.18-.442.316-.697.403-.28.096-.573.144-.867.141a2.6 2.6 0 0 1-.867-.14 2.1 2.1 0 0 1-.698-.404 1.8 1.8 0 0 1-.465-.648 2.2 2.2 0 0 1-.169-.882v-4.815h1.031v4.826c-.003.167.027.333.089.488.056.138.142.262.25.362q.166.148.37.225.222.081.458.08.236.001.458-.08a1.2 1.2 0 0 0 .37-.225c.108-.1.194-.224.25-.362q.096-.234.092-.488v-4.824h1.03zm1.34 1.98v-6.793h1.03v6.794zm4.552-5.902v5.902h-1.03v-5.902h-1.524v-.892h4.069v.892zm2.472 5.902v-6.793H109v.892h-2.454v2h2.235v.872h-2.235v2.14H109v.891z"/>
</svg>
