<svg viewBox="0 0 8 14" fill="currentColor" xmlns="http://www.w3.org/2000/svg">
  <path d="M4.00513 2.00005C3.96097 1.99925 3.91725 2.00854 3.87749 2.02717C3.83773 2.0458 3.80305 2.07325 3.77626 2.10729L1.05766 5.5618C1.02585 5.60223 1.00632 5.65048 1.0013 5.7011C0.996268 5.75172 1.00593 5.8027 1.02921 5.84828C1.05248 5.89385 1.08842 5.93221 1.13299 5.95902C1.17755 5.98583 1.22896 6.00003 1.2814 6H6.7186C6.77104 6.00003 6.82245 5.98583 6.86701 5.95902C6.91158 5.93221 6.94752 5.89385 6.97079 5.84828C6.99407 5.8027 7.00373 5.75172 6.9987 5.7011C6.99368 5.65048 6.97415 5.60223 6.94234 5.5618L4.22374 2.10729C4.198 2.07458 4.16497 2.04795 4.12711 2.02937C4.08925 2.0108 4.04755 2.00078 4.00513 2.00005Z" />
  <path d="M4.00513 12C3.96097 12.0008 3.91725 11.9915 3.87749 11.9728C3.83773 11.9542 3.80305 11.9268 3.77626 11.8927L1.05766 8.4382C1.02585 8.39777 1.00632 8.34952 1.0013 8.2989C0.996268 8.24828 1.00593 8.1973 1.02921 8.15172C1.05248 8.10615 1.08842 8.06779 1.13299 8.04098C1.17755 8.01417 1.22896 7.99997 1.2814 8H6.7186C6.77104 7.99997 6.82245 8.01417 6.86701 8.04098C6.91158 8.06779 6.94752 8.10615 6.97079 8.15172C6.99407 8.1973 7.00373 8.24828 6.9987 8.2989C6.99368 8.34952 6.97415 8.39777 6.94234 8.4382L4.22374 11.8927C4.198 11.9254 4.16497 11.9521 4.12711 11.9706C4.08925 11.9892 4.04755 11.9992 4.00513 12Z" fill="#E4E7EC" />
</svg>
