<svg width="576" height="240" viewBox="0 0 576 240" fill="none" xmlns="http://www.w3.org/2000/svg">
<path d="M518.722 232.861C518.722 234.159 518.71 235.454 518.689 236.748H54.234C54.2127 235.454 54.2012 234.159 54.2012 232.861C54.2012 104.255 158.188 0 286.463 0C414.737 0 518.722 104.255 518.722 232.861Z" fill="#D8FFED"/>
<path d="M108.802 228.587H108.792C108.318 228.581 107.936 228.19 107.941 227.715C107.965 225.659 108.024 223.577 108.119 221.528C108.14 221.052 108.541 220.683 109.018 220.706C109.492 220.727 109.86 221.131 109.837 221.607C109.745 223.637 109.685 225.698 109.662 227.734C109.656 228.208 109.272 228.587 108.802 228.587ZM464.088 226.41C463.621 226.41 463.239 226.036 463.228 225.567C463.18 223.533 463.097 221.472 462.979 219.441C462.952 218.966 463.315 218.558 463.789 218.531C464.265 218.502 464.67 218.867 464.697 219.343C464.815 221.392 464.9 223.475 464.95 225.528C464.961 226.004 464.585 226.4 464.111 226.412C464.103 226.412 464.098 226.412 464.09 226.412L464.088 226.41ZM109.579 213.829C109.552 213.829 109.525 213.829 109.498 213.825C109.025 213.78 108.676 213.359 108.723 212.885C108.915 210.837 109.145 208.769 109.407 206.733C109.469 206.261 109.899 205.926 110.371 205.988C110.842 206.05 111.176 206.481 111.114 206.955C110.855 208.97 110.626 211.019 110.437 213.047C110.394 213.494 110.02 213.829 109.581 213.829H109.579ZM463.133 211.659C462.699 211.659 462.325 211.33 462.279 210.888C462.065 208.863 461.81 206.816 461.527 204.805C461.459 204.333 461.787 203.896 462.258 203.831C462.728 203.763 463.164 204.092 463.23 204.563C463.517 206.595 463.772 208.662 463.99 210.706C464.04 211.18 463.698 211.605 463.226 211.655C463.195 211.659 463.164 211.661 463.133 211.661V211.659ZM111.565 199.183C111.515 199.183 111.465 199.179 111.413 199.169C110.944 199.086 110.634 198.637 110.717 198.167C111.077 196.145 111.478 194.101 111.908 192.094C112.009 191.628 112.466 191.333 112.93 191.431C113.395 191.532 113.69 191.99 113.592 192.456C113.166 194.444 112.768 196.468 112.412 198.471C112.336 198.889 111.974 199.183 111.565 199.183ZM460.966 197.04C460.561 197.04 460.2 196.752 460.121 196.34C459.739 194.341 459.317 192.323 458.867 190.341C458.761 189.877 459.053 189.415 459.515 189.308C459.978 189.202 460.439 189.494 460.545 189.958C461 191.959 461.425 193.997 461.81 196.017C461.899 196.485 461.594 196.938 461.128 197.027C461.074 197.036 461.018 197.042 460.966 197.042V197.04ZM114.761 184.753C114.687 184.753 114.612 184.743 114.539 184.724C114.08 184.602 113.806 184.128 113.929 183.668C114.456 181.685 115.027 179.682 115.623 177.715C115.761 177.259 116.242 177.002 116.697 177.141C117.152 177.28 117.408 177.762 117.269 178.218C116.679 180.165 116.114 182.149 115.594 184.113C115.491 184.5 115.142 184.753 114.762 184.753H114.761ZM457.595 182.653C457.219 182.653 456.873 182.404 456.767 182.023C456.22 180.062 455.632 178.086 455.018 176.149C454.874 175.695 455.124 175.209 455.578 175.066C456.031 174.921 456.515 175.173 456.657 175.627C457.277 177.584 457.871 179.579 458.424 181.559C458.551 182.017 458.285 182.493 457.826 182.622C457.749 182.644 457.67 182.655 457.595 182.655V182.653ZM119.156 170.621C119.059 170.621 118.961 170.606 118.864 170.571C118.417 170.41 118.184 169.916 118.344 169.467C119.036 167.528 119.773 165.575 120.534 163.661C120.71 163.218 121.211 163.001 121.653 163.179C122.095 163.355 122.311 163.858 122.133 164.301C121.381 166.196 120.65 168.131 119.964 170.051C119.838 170.403 119.507 170.623 119.154 170.623L119.156 170.621ZM453.034 168.597C452.685 168.597 452.357 168.382 452.228 168.034C451.52 166.13 450.77 164.208 449.997 162.327C449.815 161.886 450.024 161.381 450.463 161.199C450.903 161.018 451.406 161.228 451.587 161.667C452.369 163.568 453.128 165.507 453.842 167.431C454.008 167.878 453.78 168.375 453.335 168.541C453.236 168.578 453.134 168.595 453.034 168.595V168.597ZM124.717 156.896C124.598 156.896 124.476 156.87 124.36 156.818C123.929 156.621 123.738 156.109 123.934 155.675C124.787 153.802 125.683 151.919 126.599 150.076C126.812 149.649 127.328 149.477 127.753 149.689C128.179 149.902 128.35 150.42 128.138 150.846C127.23 152.671 126.343 154.535 125.5 156.391C125.356 156.708 125.043 156.896 124.717 156.896ZM447.328 154.987C447.004 154.987 446.695 154.804 446.548 154.492C445.686 152.657 444.782 150.811 443.856 149.005C443.638 148.582 443.806 148.062 444.228 147.843C444.651 147.625 445.17 147.793 445.387 148.216C446.321 150.039 447.235 151.905 448.105 153.758C448.307 154.189 448.122 154.703 447.692 154.906C447.574 154.962 447.449 154.989 447.326 154.989L447.328 154.987ZM131.399 143.692C131.257 143.692 131.112 143.657 130.979 143.582C130.564 143.348 130.418 142.822 130.649 142.408C131.654 140.614 132.703 138.812 133.768 137.054C134.014 136.646 134.545 136.517 134.95 136.764C135.357 137.012 135.486 137.541 135.239 137.949C134.184 139.69 133.145 141.474 132.152 143.251C131.993 143.533 131.702 143.692 131.399 143.692ZM440.516 141.909C440.219 141.909 439.93 141.755 439.77 141.478C438.757 139.719 437.703 137.951 436.63 136.229C436.38 135.825 436.503 135.293 436.906 135.04C437.309 134.788 437.839 134.912 438.092 135.316C439.174 137.056 440.24 138.839 441.261 140.616C441.498 141.029 441.357 141.555 440.944 141.793C440.809 141.871 440.661 141.909 440.516 141.909ZM139.15 131.097C138.984 131.097 138.816 131.049 138.67 130.948C138.276 130.682 138.172 130.146 138.438 129.75C139.586 128.048 140.779 126.341 141.987 124.676C142.266 124.291 142.804 124.206 143.188 124.487C143.572 124.767 143.657 125.306 143.377 125.691C142.181 127.339 140.999 129.03 139.863 130.714C139.698 130.962 139.426 131.093 139.15 131.093V131.097ZM432.642 129.436C432.368 129.436 432.1 129.307 431.934 129.065C430.781 127.395 429.582 125.72 428.371 124.09C428.087 123.707 428.166 123.168 428.546 122.884C428.928 122.6 429.466 122.679 429.749 123.06C430.972 124.705 432.183 126.395 433.348 128.083C433.618 128.475 433.522 129.013 433.13 129.284C432.982 129.388 432.81 129.436 432.64 129.436H432.642ZM147.911 119.197C147.722 119.197 147.531 119.135 147.373 119.007C147.003 118.709 146.943 118.166 147.242 117.795C148.526 116.194 149.855 114.591 151.193 113.037C151.504 112.675 152.048 112.636 152.406 112.946C152.767 113.257 152.805 113.802 152.497 114.162C151.172 115.703 149.855 117.288 148.582 118.876C148.412 119.088 148.164 119.199 147.911 119.199V119.197ZM423.762 117.65C423.513 117.65 423.266 117.544 423.096 117.335C421.808 115.763 420.474 114.193 419.133 112.669C418.819 112.312 418.854 111.766 419.21 111.451C419.567 111.136 420.111 111.171 420.425 111.529C421.779 113.068 423.125 114.653 424.427 116.238C424.73 116.606 424.676 117.151 424.309 117.453C424.149 117.584 423.956 117.65 423.763 117.65H423.762ZM157.619 108.064C157.407 108.064 157.193 107.984 157.027 107.826C156.682 107.497 156.668 106.952 156.996 106.606C158.408 105.117 159.864 103.632 161.324 102.192C161.663 101.857 162.207 101.863 162.54 102.201C162.874 102.542 162.868 103.087 162.531 103.422C161.084 104.848 159.642 106.318 158.244 107.793C158.074 107.971 157.846 108.062 157.619 108.062V108.064ZM413.94 106.633C413.716 106.633 413.491 106.546 413.323 106.372C411.909 104.912 410.451 103.458 408.988 102.049C408.644 101.718 408.635 101.173 408.964 100.829C409.294 100.485 409.838 100.475 410.181 100.806C411.659 102.229 413.132 103.698 414.557 105.171C414.889 105.514 414.881 106.059 414.54 106.391C414.372 106.554 414.156 106.635 413.94 106.635V106.633ZM168.204 97.7758C167.967 97.7758 167.732 97.6791 167.562 97.4877C167.246 97.1319 167.277 96.5867 167.632 96.2696C169.161 94.9026 170.733 93.5434 172.306 92.2306C172.671 91.9251 173.214 91.9753 173.517 92.3408C173.822 92.7062 173.772 93.2514 173.407 93.555C171.849 94.8543 170.293 96.2019 168.777 97.5554C168.613 97.7023 168.409 97.7738 168.204 97.7738V97.7758ZM403.239 96.4629C403.038 96.4629 402.836 96.3933 402.674 96.2503C401.144 94.9104 399.569 93.5821 397.995 92.2982C397.627 91.9966 397.571 91.4533 397.872 91.084C398.173 90.7147 398.715 90.6587 399.083 90.9603C400.672 92.2576 402.261 93.5995 403.806 94.951C404.164 95.2642 404.201 95.8094 403.889 96.1691C403.719 96.3643 403.48 96.4649 403.241 96.4649L403.239 96.4629ZM179.594 88.4023C179.334 88.4023 179.075 88.2844 178.905 88.0581C178.62 87.6772 178.695 87.1359 179.075 86.8497C180.71 85.6142 182.388 84.3903 184.062 83.2129C184.452 82.9383 184.988 83.033 185.262 83.4236C185.534 83.8142 185.441 84.3517 185.051 84.6262C183.393 85.7921 181.731 87.0044 180.111 88.2283C179.956 88.3462 179.773 88.4023 179.594 88.4023ZM391.734 87.2055C391.556 87.2055 391.377 87.1513 391.224 87.0373C389.589 85.8288 387.911 84.634 386.235 83.4835C385.844 83.2148 385.744 82.6773 386.012 82.2848C386.28 81.8923 386.816 81.7918 387.207 82.0605C388.899 83.2225 390.594 84.429 392.245 85.649C392.626 85.9313 392.709 86.4727 392.428 86.8555C392.26 87.0856 391.998 87.2074 391.734 87.2074V87.2055ZM191.71 80.0072C191.425 80.0072 191.145 79.8641 190.981 79.605C190.727 79.2028 190.848 78.6692 191.25 78.414C192.979 77.3177 194.752 76.2388 196.518 75.2044C196.929 74.9647 197.455 75.1019 197.694 75.5138C197.934 75.9256 197.797 76.4534 197.386 76.6932C195.637 77.7179 193.882 78.7871 192.169 79.8718C192.027 79.9627 191.869 80.0052 191.71 80.0052V80.0072ZM379.501 78.9321C379.347 78.9321 379.191 78.8915 379.05 78.8045C377.32 77.7373 375.548 76.6835 373.781 75.6762C373.369 75.4403 373.224 74.9144 373.459 74.5006C373.695 74.0869 374.219 73.9419 374.632 74.1777C376.416 75.1947 378.205 76.2582 379.952 77.337C380.357 77.5865 380.483 78.1182 380.234 78.5242C380.072 78.7891 379.789 78.9341 379.501 78.9341V78.9321ZM204.469 72.6484C204.159 72.6484 203.858 72.4802 203.706 72.1843C203.486 71.7609 203.65 71.2408 204.07 71.0204C205.885 70.073 207.738 69.1449 209.582 68.2613C210.01 68.0564 210.525 68.2381 210.729 68.6673C210.933 69.0966 210.752 69.6128 210.324 69.8178C208.498 70.6917 206.662 71.612 204.867 72.5498C204.739 72.6155 204.604 72.6484 204.469 72.6484ZM366.619 71.701C366.488 71.701 366.355 71.672 366.231 71.6082C364.417 70.6859 362.562 69.7849 360.718 68.9284C360.286 68.7273 360.099 68.2149 360.299 67.7838C360.5 67.3507 361.011 67.1631 361.441 67.3642C363.302 68.2285 365.177 69.1391 367.009 70.0691C367.433 70.2837 367.603 70.8038 367.388 71.2292C367.236 71.5289 366.933 71.7029 366.621 71.7029L366.619 71.701ZM217.787 66.382C217.452 66.382 217.132 66.1828 216.993 65.8522C216.81 65.4133 217.016 64.9067 217.454 64.7231C219.338 63.9303 221.26 63.1608 223.17 62.4358C223.613 62.2656 224.111 62.4918 224.278 62.9365C224.446 63.3812 224.223 63.8801 223.779 64.0483C221.889 64.7675 219.984 65.5293 218.119 66.3143C218.011 66.3607 217.897 66.382 217.787 66.382ZM353.174 65.5699C353.066 65.5699 352.956 65.5487 352.852 65.5061C350.968 64.7405 349.043 63.9961 347.13 63.2962C346.682 63.1318 346.453 62.6369 346.617 62.1902C346.781 61.7436 347.275 61.5116 347.72 61.6759C349.65 62.3836 351.594 63.1338 353.498 63.9071C353.937 64.087 354.15 64.5897 353.972 65.0305C353.837 65.365 353.515 65.5699 353.174 65.5699ZM231.589 61.2448C231.227 61.2448 230.889 61.0127 230.772 60.6473C230.625 60.1949 230.872 59.7076 231.325 59.5607C233.273 58.9265 235.259 58.3194 237.23 57.7529C237.687 57.6214 238.163 57.8863 238.295 58.3445C238.426 58.8028 238.162 59.2803 237.705 59.4118C235.753 59.9725 233.786 60.5738 231.857 61.2022C231.769 61.2312 231.68 61.2448 231.591 61.2448H231.589ZM339.254 60.5816C339.169 60.5816 339.084 60.568 338.998 60.5429C337.059 59.9397 335.085 59.3616 333.127 58.826C332.668 58.7003 332.398 58.2266 332.524 57.7664C332.649 57.3063 333.121 57.0356 333.58 57.1613C335.557 57.7026 337.551 58.2846 339.509 58.8956C339.962 59.0367 340.216 59.5201 340.076 59.9764C339.962 60.3457 339.62 60.5835 339.254 60.5835V60.5816ZM252.641 54.9455C252.733 55.4134 252.43 55.8658 251.964 55.9586C249.973 56.3531 247.962 56.7881 245.987 57.2521C245.922 57.2676 245.856 57.2753 245.791 57.2753C245.399 57.2753 245.046 57.0066 244.954 56.6083C244.846 56.1443 245.133 55.6802 245.596 55.5719M325.006 56.79C324.945 56.79 324.883 56.7842 324.819 56.7688C322.839 56.3299 320.824 55.92 318.828 55.5487C318.361 55.4617 318.052 55.0112 318.137 54.5433C318.224 54.0754 318.671 53.7661 319.14 53.8512C321.155 54.2243 323.192 54.64 325.192 55.0828C325.656 55.1853 325.949 55.6454 325.845 56.1114C325.757 56.5135 325.4 56.7881 325.006 56.7881V56.79ZM260.271 54.5085C259.851 54.5085 259.485 54.2011 259.421 53.7719C259.352 53.3001 259.676 52.8612 260.146 52.7916C262.171 52.4919 264.231 52.2232 266.269 51.9931C266.742 51.939 267.168 52.2812 267.22 52.7529C267.274 53.2266 266.932 53.6539 266.462 53.7061C264.445 53.9343 262.404 54.1992 260.399 54.4969C260.356 54.5027 260.314 54.5066 260.271 54.5066V54.5085ZM310.493 54.203C310.454 54.203 310.416 54.2011 310.377 54.1953C308.368 53.9227 306.323 53.681 304.304 53.4799C303.832 53.4316 303.487 53.0101 303.535 52.5364C303.583 52.0627 304.003 51.7166 304.476 51.763C306.516 51.968 308.578 52.2116 310.608 52.4861C311.079 52.5499 311.409 52.985 311.345 53.4567C311.287 53.8898 310.917 54.205 310.493 54.205V54.203ZM274.932 52.956C274.482 52.956 274.103 52.606 274.074 52.1478C274.043 51.6721 274.403 51.2622 274.878 51.2313C276.92 51.0998 278.995 51.0032 281.045 50.9413C281.521 50.9297 281.917 51.3009 281.93 51.7785C281.944 52.2541 281.571 52.6524 281.095 52.6659C279.064 52.7259 277.009 52.8225 274.986 52.954C274.966 52.954 274.949 52.954 274.93 52.954L274.932 52.956ZM295.813 52.8303C295.798 52.8303 295.782 52.8303 295.769 52.8303C293.746 52.7259 291.69 52.6543 289.658 52.6176C289.183 52.6099 288.803 52.2154 288.813 51.7398C288.821 51.268 289.204 50.8929 289.673 50.8929C289.679 50.8929 289.683 50.8929 289.688 50.8929C291.74 50.9297 293.815 51.0012 295.858 51.1076C296.332 51.1327 296.696 51.5387 296.671 52.0144C296.648 52.4745 296.268 52.8322 295.813 52.8322V52.8303Z" fill="white"/>
<path d="M573.817 235.29H2.18303C0.977378 235.29 0 236.27 0 237.479V237.811C0 239.02 0.977378 240 2.18303 240H573.817C575.023 240 576 239.02 576 237.811V237.479C576 236.27 575.023 235.29 573.817 235.29Z" fill="#004627"/>
<path d="M413.065 50.9142H159.808C154.903 50.9142 150.926 54.9013 150.926 59.8198V210.068C150.926 214.986 154.903 218.973 159.808 218.973H413.065C417.971 218.973 421.948 214.986 421.948 210.068V59.8198C421.948 54.9013 417.971 50.9142 413.065 50.9142Z" fill="#008441"/>
<path d="M414.139 59.6903H158.734V208.78H414.139V59.6903Z" fill="white"/>
<path d="M162.359 59.692H158.734V208.782H162.359V59.692Z" fill="#004627"/>
<path d="M257.867 63.3252L162.357 159.086V197.889L296.581 63.3156L257.867 63.3252Z" fill="#D8FFED"/>
<path d="M414.136 59.6903V96.8961L302.541 208.782H216.076L363.016 61.4614V59.6903H414.136Z" fill="#D8FFED"/>
<path d="M414.136 109.191V132.857L338.407 208.782H314.805L414.136 109.191Z" fill="#D8FFED"/>
<path d="M414.14 59.692H410.516V208.782H414.14V59.692Z" fill="#004627"/>
<path d="M158.734 59.6902V63.3232L414.139 63.3232V59.6902L158.734 59.6902Z" fill="#004627"/>
<path d="M127.289 220.793H445.637V227.425C445.637 231.765 442.122 235.29 437.792 235.29H135.132C130.803 235.29 127.287 231.765 127.287 227.425V220.793H127.289Z" fill="#004627"/>
<path d="M427.924 217.587H144.949C143.183 217.587 141.752 219.022 141.752 220.793H431.121C431.121 219.022 429.69 217.587 427.924 217.587Z" fill="#039855"/>
<path d="M291.145 220.824H257.865L260.338 224.07C261.032 224.983 262.114 225.518 263.259 225.518H309.664C310.81 225.518 311.889 224.983 312.586 224.07L315.058 220.824H291.147H291.145Z" fill="#52C491"/>
<g clip-path="url(#clip0_7166_72341)">
<path d="M468.252 156.054H457.181V119.541C457.181 103.605 444.182 90.6401 428.202 90.6401C412.222 90.6401 399.223 103.605 399.223 119.541V156.054H388.152V119.541C388.15 97.5168 406.116 79.5969 428.199 79.5969C450.283 79.5969 468.252 97.5168 468.252 119.541V156.054Z" fill="#004627"/>
<path d="M480.907 138.727H375.495C373.124 138.727 371.201 140.645 371.201 143.01V211.314C371.201 213.68 373.124 215.597 375.495 215.597H480.907C483.279 215.597 485.201 213.68 485.201 211.314V143.01C485.201 140.645 483.279 138.727 480.907 138.727Z" fill="#039855"/>
<path d="M485.201 211.314V169.461C450.472 198.765 400.398 209.776 372.021 213.817C372.802 214.892 374.062 215.597 375.493 215.597H480.906C483.277 215.597 485.198 213.681 485.198 211.317L485.201 211.314Z" fill="#52C491"/>
<path d="M437.621 165.586C437.621 160.398 433.403 156.19 428.199 156.19C422.995 156.19 418.777 160.396 418.777 165.586C418.777 168.679 420.282 171.414 422.596 173.128L419.598 194.374H436.798L433.8 173.128C436.113 171.417 437.618 168.679 437.618 165.586H437.621Z" fill="#004627"/>
<path d="M374.797 146.828V161.538C375.186 155.292 378.201 141.699 397.052 141.699H379.939C377.11 141.699 374.797 144.007 374.797 146.828Z" fill="#52C491"/>
<path d="M419.602 194.371C419.602 194.371 432.368 190.773 433.804 173.125L436.801 194.371H419.602Z" fill="#003213"/>
</g>
<path d="M336.869 169.133C326.986 169.133 320.58 165.109 317.65 159.445C316.908 158.078 316.596 156.789 316.596 155.461C316.596 152.805 318.275 151.125 321.088 151.125C323.158 151.125 324.408 152.023 325.463 154.094C327.416 158.352 330.814 160.891 336.986 160.891C343.393 160.891 347.729 157.219 347.729 152.102C347.768 146.086 343.393 142.727 336.166 142.727H332.963C330.463 142.727 328.979 141.203 328.979 138.977C328.979 136.75 330.463 135.227 332.963 135.227H335.932C342.143 135.227 346.283 131.672 346.283 126.672C346.283 121.789 343.08 118.508 336.83 118.508C331.518 118.508 328.432 120.695 326.557 125.109C325.463 127.531 324.369 128.43 322.025 128.43C319.213 128.43 317.729 126.789 317.729 124.211C317.729 122.805 318.002 121.555 318.705 120.188C321.361 114.602 327.611 110.5 336.791 110.5C348.471 110.5 355.971 116.594 355.971 125.305C355.971 132.375 350.932 137.102 344.135 138.508V138.703C352.455 139.484 357.963 144.484 357.963 152.336C357.963 162.336 349.213 169.133 336.869 169.133Z" fill="#004627"/>
<path d="M288.586 169.133C274.68 169.133 266.398 157.844 266.398 139.758C266.398 121.75 274.758 110.5 288.586 110.5C302.375 110.5 310.695 121.672 310.695 139.719C310.695 157.766 302.453 169.133 288.586 169.133ZM288.586 160.891C296.203 160.891 300.539 153.117 300.539 139.758C300.539 126.555 296.125 118.742 288.586 118.742C281.008 118.742 276.555 126.594 276.555 139.719C276.555 153.078 280.93 160.891 288.586 160.891Z" fill="#004627"/>
<path d="M250.068 168.781C247.295 168.781 245.264 166.984 245.264 163.82V157.18H223.037C219.404 157.18 217.021 154.875 217.021 151.516C217.021 149.328 217.646 147.492 219.209 144.68C223.154 137.609 229.561 127.961 236.318 118.039C239.99 112.57 242.451 110.852 246.592 110.852C251.787 110.852 254.873 113.586 254.873 118.273V148.898H258.818C261.475 148.898 263.076 150.617 263.076 153.039C263.076 155.5 261.475 157.18 258.779 157.18H254.873V163.82C254.873 166.984 252.881 168.781 250.068 168.781ZM245.42 149.133V119.289H245.264C236.318 132.102 230.732 140.539 226.162 148.859V149.133H245.42Z" fill="#004627"/>
<defs>
<clipPath id="clip0_7166_72341">
<rect width="114" height="136" fill="white" transform="translate(371.201 79.5969)"/>
</clipPath>
</defs>
</svg>
