<svg width="576" height="240" viewBox="0 0 576 240" fill="none" xmlns="http://www.w3.org/2000/svg">
<path d="M518.722 232.861C518.722 234.159 518.71 235.454 518.689 236.748H54.234C54.2127 235.454 54.2012 234.159 54.2012 232.861C54.2012 104.255 158.188 0 286.463 0C414.737 0 518.722 104.255 518.722 232.861Z" fill="#D8FFED"/>
<path d="M108.802 228.587H108.792C108.318 228.581 107.936 228.19 107.941 227.715C107.965 225.659 108.024 223.577 108.119 221.528C108.14 221.052 108.541 220.683 109.018 220.706C109.492 220.727 109.86 221.131 109.837 221.607C109.745 223.637 109.685 225.698 109.662 227.734C109.656 228.208 109.272 228.587 108.802 228.587ZM464.088 226.41C463.621 226.41 463.239 226.036 463.228 225.567C463.18 223.533 463.097 221.472 462.979 219.441C462.952 218.966 463.315 218.558 463.789 218.531C464.265 218.502 464.67 218.867 464.697 219.343C464.815 221.392 464.9 223.475 464.95 225.528C464.961 226.004 464.585 226.4 464.111 226.412C464.103 226.412 464.098 226.412 464.09 226.412L464.088 226.41ZM109.579 213.829C109.552 213.829 109.525 213.829 109.498 213.825C109.025 213.78 108.676 213.359 108.723 212.885C108.915 210.837 109.145 208.769 109.407 206.733C109.469 206.261 109.899 205.926 110.371 205.988C110.842 206.05 111.176 206.481 111.114 206.955C110.855 208.97 110.626 211.019 110.437 213.047C110.394 213.494 110.02 213.829 109.581 213.829H109.579ZM463.133 211.659C462.699 211.659 462.325 211.33 462.279 210.888C462.065 208.863 461.81 206.816 461.527 204.805C461.459 204.333 461.787 203.896 462.258 203.831C462.728 203.763 463.164 204.092 463.23 204.563C463.517 206.595 463.772 208.662 463.99 210.706C464.04 211.18 463.698 211.605 463.226 211.655C463.195 211.659 463.164 211.661 463.133 211.661V211.659ZM111.565 199.183C111.515 199.183 111.465 199.179 111.413 199.169C110.944 199.086 110.634 198.637 110.717 198.167C111.077 196.145 111.478 194.101 111.908 192.094C112.009 191.628 112.466 191.333 112.93 191.431C113.395 191.532 113.69 191.99 113.592 192.456C113.166 194.444 112.768 196.468 112.412 198.471C112.336 198.889 111.974 199.183 111.565 199.183ZM460.966 197.04C460.561 197.04 460.2 196.752 460.121 196.34C459.739 194.341 459.317 192.323 458.867 190.341C458.761 189.877 459.053 189.415 459.515 189.308C459.978 189.202 460.439 189.494 460.545 189.958C461 191.959 461.425 193.997 461.81 196.017C461.899 196.485 461.594 196.938 461.128 197.027C461.074 197.036 461.018 197.042 460.966 197.042V197.04ZM114.761 184.753C114.687 184.753 114.612 184.743 114.539 184.724C114.08 184.602 113.806 184.128 113.929 183.668C114.456 181.685 115.027 179.682 115.623 177.715C115.761 177.259 116.242 177.002 116.697 177.141C117.152 177.28 117.408 177.762 117.269 178.218C116.679 180.165 116.114 182.149 115.594 184.113C115.491 184.5 115.142 184.753 114.762 184.753H114.761ZM457.595 182.653C457.219 182.653 456.873 182.404 456.767 182.023C456.22 180.062 455.632 178.086 455.018 176.149C454.874 175.695 455.124 175.209 455.578 175.066C456.031 174.921 456.515 175.173 456.657 175.627C457.277 177.584 457.871 179.579 458.424 181.559C458.551 182.017 458.285 182.493 457.826 182.622C457.749 182.644 457.67 182.655 457.595 182.655V182.653ZM119.156 170.621C119.059 170.621 118.961 170.606 118.864 170.571C118.417 170.41 118.184 169.916 118.344 169.467C119.036 167.528 119.773 165.575 120.534 163.661C120.71 163.218 121.211 163.001 121.653 163.179C122.095 163.355 122.311 163.858 122.133 164.301C121.381 166.196 120.65 168.131 119.964 170.051C119.838 170.403 119.507 170.623 119.154 170.623L119.156 170.621ZM453.034 168.597C452.685 168.597 452.357 168.382 452.228 168.034C451.52 166.13 450.77 164.208 449.997 162.327C449.815 161.886 450.024 161.381 450.463 161.199C450.903 161.018 451.406 161.228 451.587 161.667C452.369 163.568 453.128 165.507 453.842 167.431C454.008 167.878 453.78 168.375 453.335 168.541C453.236 168.578 453.134 168.595 453.034 168.595V168.597ZM124.717 156.896C124.598 156.896 124.476 156.87 124.36 156.818C123.929 156.621 123.738 156.109 123.934 155.675C124.787 153.802 125.683 151.919 126.599 150.076C126.812 149.649 127.328 149.477 127.753 149.689C128.179 149.902 128.35 150.42 128.138 150.846C127.23 152.671 126.343 154.535 125.5 156.391C125.356 156.708 125.043 156.896 124.717 156.896ZM447.328 154.987C447.004 154.987 446.695 154.804 446.548 154.492C445.686 152.657 444.782 150.811 443.856 149.005C443.638 148.582 443.806 148.062 444.228 147.843C444.651 147.625 445.17 147.793 445.387 148.216C446.321 150.039 447.235 151.905 448.105 153.758C448.307 154.189 448.122 154.703 447.692 154.906C447.574 154.962 447.449 154.989 447.326 154.989L447.328 154.987ZM131.399 143.692C131.257 143.692 131.112 143.657 130.979 143.582C130.564 143.348 130.418 142.822 130.649 142.408C131.654 140.614 132.703 138.812 133.768 137.054C134.014 136.646 134.545 136.517 134.95 136.764C135.357 137.012 135.486 137.541 135.239 137.949C134.184 139.69 133.145 141.474 132.152 143.251C131.993 143.533 131.702 143.692 131.399 143.692ZM440.516 141.909C440.219 141.909 439.93 141.755 439.77 141.478C438.757 139.719 437.703 137.951 436.63 136.229C436.38 135.825 436.503 135.293 436.906 135.04C437.309 134.788 437.839 134.912 438.092 135.316C439.174 137.056 440.24 138.839 441.261 140.616C441.498 141.029 441.357 141.555 440.944 141.793C440.809 141.871 440.661 141.909 440.516 141.909ZM139.15 131.097C138.984 131.097 138.816 131.049 138.67 130.948C138.276 130.682 138.172 130.146 138.438 129.75C139.586 128.048 140.779 126.341 141.987 124.676C142.266 124.291 142.804 124.206 143.188 124.487C143.572 124.767 143.657 125.306 143.377 125.691C142.181 127.339 140.999 129.03 139.863 130.714C139.698 130.962 139.426 131.093 139.15 131.093V131.097ZM432.642 129.436C432.368 129.436 432.1 129.307 431.934 129.065C430.781 127.395 429.582 125.72 428.371 124.09C428.087 123.707 428.166 123.168 428.546 122.884C428.928 122.6 429.466 122.679 429.749 123.06C430.972 124.705 432.183 126.395 433.348 128.083C433.618 128.475 433.522 129.013 433.13 129.284C432.982 129.388 432.81 129.436 432.64 129.436H432.642ZM147.911 119.197C147.722 119.197 147.531 119.135 147.373 119.007C147.003 118.709 146.943 118.166 147.242 117.795C148.526 116.194 149.855 114.591 151.193 113.037C151.504 112.675 152.048 112.636 152.406 112.946C152.767 113.257 152.805 113.802 152.497 114.162C151.172 115.703 149.855 117.288 148.582 118.876C148.412 119.088 148.164 119.199 147.911 119.199V119.197ZM423.762 117.65C423.513 117.65 423.266 117.544 423.096 117.335C421.808 115.763 420.474 114.193 419.133 112.669C418.819 112.312 418.854 111.766 419.21 111.451C419.567 111.136 420.111 111.171 420.425 111.529C421.779 113.068 423.125 114.653 424.427 116.238C424.73 116.606 424.676 117.151 424.309 117.453C424.149 117.584 423.956 117.65 423.763 117.65H423.762ZM157.619 108.064C157.407 108.064 157.193 107.984 157.027 107.826C156.682 107.497 156.668 106.952 156.996 106.606C158.408 105.117 159.864 103.632 161.324 102.192C161.663 101.857 162.207 101.863 162.54 102.201C162.874 102.542 162.868 103.087 162.531 103.422C161.084 104.848 159.642 106.318 158.244 107.793C158.074 107.971 157.846 108.062 157.619 108.062V108.064ZM413.94 106.633C413.716 106.633 413.491 106.546 413.323 106.372C411.909 104.912 410.451 103.458 408.988 102.049C408.644 101.718 408.635 101.173 408.964 100.829C409.294 100.485 409.838 100.475 410.181 100.806C411.659 102.229 413.132 103.698 414.557 105.171C414.889 105.514 414.881 106.059 414.54 106.391C414.372 106.554 414.156 106.635 413.94 106.635V106.633ZM168.204 97.7758C167.967 97.7758 167.732 97.6791 167.562 97.4877C167.246 97.1319 167.277 96.5867 167.632 96.2696C169.161 94.9026 170.733 93.5434 172.306 92.2306C172.671 91.9251 173.214 91.9753 173.517 92.3408C173.822 92.7062 173.772 93.2514 173.407 93.555C171.849 94.8543 170.293 96.2019 168.777 97.5554C168.613 97.7023 168.409 97.7738 168.204 97.7738V97.7758ZM403.239 96.4629C403.038 96.4629 402.836 96.3933 402.674 96.2503C401.144 94.9104 399.569 93.5821 397.995 92.2982C397.627 91.9966 397.571 91.4533 397.872 91.084C398.173 90.7147 398.715 90.6587 399.083 90.9603C400.672 92.2576 402.261 93.5995 403.806 94.951C404.164 95.2642 404.201 95.8094 403.889 96.1691C403.719 96.3643 403.48 96.4649 403.241 96.4649L403.239 96.4629ZM179.594 88.4023C179.334 88.4023 179.075 88.2844 178.905 88.0581C178.62 87.6772 178.695 87.1359 179.075 86.8497C180.71 85.6142 182.388 84.3903 184.062 83.2129C184.452 82.9383 184.988 83.033 185.262 83.4236C185.534 83.8142 185.441 84.3517 185.051 84.6262C183.393 85.7921 181.731 87.0044 180.111 88.2283C179.956 88.3462 179.773 88.4023 179.594 88.4023ZM391.734 87.2055C391.556 87.2055 391.377 87.1513 391.224 87.0373C389.589 85.8288 387.911 84.634 386.235 83.4835C385.844 83.2148 385.744 82.6773 386.012 82.2848C386.28 81.8923 386.816 81.7918 387.207 82.0605C388.899 83.2225 390.594 84.429 392.245 85.649C392.626 85.9313 392.709 86.4727 392.428 86.8555C392.26 87.0856 391.998 87.2074 391.734 87.2074V87.2055ZM191.71 80.0072C191.425 80.0072 191.145 79.8641 190.981 79.605C190.727 79.2028 190.848 78.6692 191.25 78.414C192.979 77.3177 194.752 76.2388 196.518 75.2044C196.929 74.9647 197.455 75.1019 197.694 75.5138C197.934 75.9256 197.797 76.4534 197.386 76.6932C195.637 77.7179 193.882 78.7871 192.169 79.8718C192.027 79.9627 191.869 80.0052 191.71 80.0052V80.0072ZM379.501 78.9321C379.347 78.9321 379.191 78.8915 379.05 78.8045C377.32 77.7373 375.548 76.6835 373.781 75.6762C373.369 75.4403 373.224 74.9144 373.459 74.5006C373.695 74.0869 374.219 73.9419 374.632 74.1777C376.416 75.1947 378.205 76.2582 379.952 77.337C380.357 77.5865 380.483 78.1182 380.234 78.5242C380.072 78.7891 379.789 78.9341 379.501 78.9341V78.9321ZM204.469 72.6484C204.159 72.6484 203.858 72.4802 203.706 72.1843C203.486 71.7609 203.65 71.2408 204.07 71.0204C205.885 70.073 207.738 69.1449 209.582 68.2613C210.01 68.0564 210.525 68.2381 210.729 68.6673C210.933 69.0966 210.752 69.6128 210.324 69.8178C208.498 70.6917 206.662 71.612 204.867 72.5498C204.739 72.6155 204.604 72.6484 204.469 72.6484ZM366.619 71.701C366.488 71.701 366.355 71.672 366.231 71.6082C364.417 70.6859 362.562 69.7849 360.718 68.9284C360.286 68.7273 360.099 68.2149 360.299 67.7838C360.5 67.3507 361.011 67.1631 361.441 67.3642C363.302 68.2285 365.177 69.1391 367.009 70.0691C367.433 70.2837 367.603 70.8038 367.388 71.2292C367.236 71.5289 366.933 71.7029 366.621 71.7029L366.619 71.701ZM217.787 66.382C217.452 66.382 217.132 66.1828 216.993 65.8522C216.81 65.4133 217.016 64.9067 217.454 64.7231C219.338 63.9303 221.26 63.1608 223.17 62.4358C223.613 62.2656 224.111 62.4918 224.278 62.9365C224.446 63.3812 224.223 63.8801 223.779 64.0483C221.889 64.7675 219.984 65.5293 218.119 66.3143C218.011 66.3607 217.897 66.382 217.787 66.382ZM353.174 65.5699C353.066 65.5699 352.956 65.5487 352.852 65.5061C350.968 64.7405 349.043 63.9961 347.13 63.2962C346.682 63.1318 346.453 62.6369 346.617 62.1902C346.781 61.7436 347.275 61.5116 347.72 61.6759C349.65 62.3836 351.594 63.1338 353.498 63.9071C353.937 64.087 354.15 64.5897 353.972 65.0305C353.837 65.365 353.515 65.5699 353.174 65.5699ZM231.589 61.2448C231.227 61.2448 230.889 61.0127 230.772 60.6473C230.625 60.1949 230.872 59.7076 231.325 59.5607C233.273 58.9265 235.259 58.3194 237.23 57.7529C237.687 57.6214 238.163 57.8863 238.295 58.3445C238.426 58.8028 238.162 59.2803 237.705 59.4118C235.753 59.9725 233.786 60.5738 231.857 61.2022C231.769 61.2312 231.68 61.2448 231.591 61.2448H231.589ZM339.254 60.5816C339.169 60.5816 339.084 60.568 338.998 60.5429C337.059 59.9397 335.085 59.3616 333.127 58.826C332.668 58.7003 332.398 58.2266 332.524 57.7664C332.649 57.3063 333.121 57.0356 333.58 57.1613C335.557 57.7026 337.551 58.2846 339.509 58.8956C339.962 59.0367 340.216 59.5201 340.076 59.9764C339.962 60.3457 339.62 60.5835 339.254 60.5835V60.5816ZM252.641 54.9455C252.733 55.4134 252.43 55.8658 251.964 55.9586C249.973 56.3531 247.962 56.7881 245.987 57.2521C245.922 57.2676 245.856 57.2753 245.791 57.2753C245.399 57.2753 245.046 57.0066 244.954 56.6083C244.846 56.1443 245.133 55.6802 245.596 55.5719M325.006 56.79C324.945 56.79 324.883 56.7842 324.819 56.7688C322.839 56.3299 320.824 55.92 318.828 55.5487C318.361 55.4617 318.052 55.0112 318.137 54.5433C318.224 54.0754 318.671 53.7661 319.14 53.8512C321.155 54.2243 323.192 54.64 325.192 55.0828C325.656 55.1853 325.949 55.6454 325.845 56.1114C325.757 56.5135 325.4 56.7881 325.006 56.7881V56.79ZM260.271 54.5085C259.851 54.5085 259.485 54.2011 259.421 53.7719C259.352 53.3001 259.676 52.8612 260.146 52.7916C262.171 52.4919 264.231 52.2232 266.269 51.9931C266.742 51.939 267.168 52.2812 267.22 52.7529C267.274 53.2266 266.932 53.6539 266.462 53.7061C264.445 53.9343 262.404 54.1992 260.399 54.4969C260.356 54.5027 260.314 54.5066 260.271 54.5066V54.5085ZM310.493 54.203C310.454 54.203 310.416 54.2011 310.377 54.1953C308.368 53.9227 306.323 53.681 304.304 53.4799C303.832 53.4316 303.487 53.0101 303.535 52.5364C303.583 52.0627 304.003 51.7166 304.476 51.763C306.516 51.968 308.578 52.2116 310.608 52.4861C311.079 52.5499 311.409 52.985 311.345 53.4567C311.287 53.8898 310.917 54.205 310.493 54.205V54.203ZM274.932 52.956C274.482 52.956 274.103 52.606 274.074 52.1478C274.043 51.6721 274.403 51.2622 274.878 51.2313C276.92 51.0998 278.995 51.0032 281.045 50.9413C281.521 50.9297 281.917 51.3009 281.93 51.7785C281.944 52.2541 281.571 52.6524 281.095 52.6659C279.064 52.7259 277.009 52.8225 274.986 52.954C274.966 52.954 274.949 52.954 274.93 52.954L274.932 52.956ZM295.813 52.8303C295.798 52.8303 295.782 52.8303 295.769 52.8303C293.746 52.7259 291.69 52.6543 289.658 52.6176C289.183 52.6099 288.803 52.2154 288.813 51.7398C288.821 51.268 289.204 50.8929 289.673 50.8929C289.679 50.8929 289.683 50.8929 289.688 50.8929C291.74 50.9297 293.815 51.0012 295.858 51.1076C296.332 51.1327 296.696 51.5387 296.671 52.0144C296.648 52.4745 296.268 52.8322 295.813 52.8322V52.8303Z" fill="white"/>
<path d="M573.817 235.29H2.18303C0.977378 235.29 0 236.27 0 237.479V237.811C0 239.02 0.977378 240 2.18303 240H573.817C575.023 240 576 239.02 576 237.811V237.479C576 236.27 575.023 235.29 573.817 235.29Z" fill="#004627"/>
<path d="M413.065 50.9142H159.808C154.903 50.9142 150.926 54.9013 150.926 59.8198V210.068C150.926 214.986 154.903 218.973 159.808 218.973H413.065C417.971 218.973 421.948 214.986 421.948 210.068V59.8198C421.948 54.9013 417.971 50.9142 413.065 50.9142Z" fill="#008441"/>
<path d="M414.139 59.6903H158.734V208.78H414.139V59.6903Z" fill="white"/>
<path d="M162.359 59.692H158.734V208.782H162.359V59.692Z" fill="#004627"/>
<path d="M257.867 63.3252L162.357 159.086V197.889L296.581 63.3156L257.867 63.3252Z" fill="#D8FFED"/>
<path d="M414.136 59.6903V96.8961L302.541 208.782H216.076L363.016 61.4614V59.6903H414.136Z" fill="#D8FFED"/>
<path d="M414.136 109.191V132.857L338.407 208.782H314.805L414.136 109.191Z" fill="#D8FFED"/>
<path d="M414.14 59.692H410.516V208.782H414.14V59.692Z" fill="#004627"/>
<path d="M158.734 59.6902V63.3232L414.139 63.3232V59.6902L158.734 59.6902Z" fill="#004627"/>
<path d="M127.289 220.793H445.637V227.425C445.637 231.765 442.122 235.29 437.792 235.29H135.132C130.803 235.29 127.287 231.765 127.287 227.425V220.793H127.289Z" fill="#004627"/>
<path d="M427.924 217.587H144.949C143.183 217.587 141.752 219.022 141.752 220.793H431.121C431.121 219.022 429.69 217.587 427.924 217.587Z" fill="#039855"/>
<path d="M291.145 220.824H257.865L260.338 224.07C261.032 224.983 262.114 225.518 263.259 225.518H309.664C310.81 225.518 311.889 224.983 312.586 224.07L315.058 220.824H291.147H291.145Z" fill="#52C491"/>
<path d="M462.595 171.424C462.666 170.495 462.701 169.548 462.701 168.591C462.701 167.634 462.666 166.705 462.595 165.768C460.374 165.246 457.949 164.742 456.003 164.194C455.789 162.389 455.428 160.619 454.949 158.894C456.542 157.646 458.587 156.247 460.435 154.92C459.833 153.159 459.126 151.443 458.311 149.787C456.055 150.15 453.621 150.619 451.621 150.857C450.718 149.283 449.718 147.786 448.604 146.371C449.595 144.6 450.949 142.53 452.152 140.592C450.922 139.193 449.603 137.876 448.205 136.645C446.267 137.857 444.205 139.21 442.435 140.203C441.009 139.089 439.514 138.079 437.94 137.186C438.186 135.177 438.648 132.743 439.018 130.496C437.354 129.672 435.638 128.965 433.877 128.363C432.55 130.213 431.151 132.266 429.903 133.849C428.187 133.371 426.416 133.017 424.603 132.796C424.055 130.858 423.56 128.432 423.029 126.203C422.1 126.141 421.162 126.097 420.206 126.097C419.251 126.097 418.312 126.141 417.374 126.203C416.843 128.434 416.347 130.858 415.808 132.796C413.993 133.017 412.216 133.371 410.497 133.849C409.241 132.265 407.861 130.212 406.525 128.363C404.754 128.965 403.046 129.672 401.384 130.496C401.764 132.743 402.233 135.177 402.473 137.186C400.888 138.079 399.393 139.089 397.968 140.203C396.207 139.212 394.136 137.857 392.198 136.645C390.799 137.874 389.482 139.193 388.25 140.592C389.455 142.53 390.807 144.6 391.799 146.371C390.692 147.786 389.683 149.283 388.79 150.857C386.781 150.619 384.347 150.149 382.091 149.787C381.276 151.443 380.569 153.159 379.967 154.92C381.826 156.247 383.87 157.646 385.463 158.894C384.976 160.619 384.631 162.389 384.401 164.194C382.455 164.742 380.03 165.248 377.808 165.768C377.747 166.707 377.701 167.654 377.701 168.591C377.701 169.528 377.745 170.494 377.808 171.424C380.028 171.955 382.453 172.459 384.401 172.99C384.631 174.804 384.976 176.582 385.463 178.3C383.87 179.548 381.826 180.947 379.967 182.274C380.569 184.045 381.276 185.761 382.091 187.415C384.347 187.043 386.781 186.575 388.79 186.336C389.683 187.911 390.692 189.416 391.799 190.832C390.807 192.592 389.453 194.664 388.25 196.602C389.48 198.009 390.799 199.318 392.198 200.549C394.136 199.345 396.206 197.992 397.968 197.001C399.393 198.115 400.888 199.125 402.473 200.01C402.235 202.019 401.764 204.452 401.384 206.708C403.048 207.522 404.756 208.23 406.525 208.841C407.852 206.982 409.241 204.929 410.497 203.345C412.214 203.822 413.993 204.177 415.808 204.398C416.347 206.345 416.843 208.77 417.374 210.99C418.312 211.053 419.249 211.097 420.206 211.097C421.163 211.097 422.1 211.053 423.029 210.99C423.56 208.77 424.055 206.345 424.603 204.398C426.418 204.177 428.187 203.823 429.903 203.345C431.151 204.929 432.55 206.982 433.877 208.841C435.638 208.23 437.354 207.522 439.018 206.708C438.646 204.452 438.186 202.019 437.94 200.01C439.514 199.125 441.011 198.115 442.435 197.001C444.205 197.992 446.267 199.347 448.205 200.549C449.603 199.32 450.921 198.009 452.152 196.602C450.948 194.664 449.595 192.594 448.604 190.832C449.718 189.416 450.719 187.911 451.621 186.336C453.621 186.585 456.055 187.045 458.311 187.415C459.124 185.76 459.833 184.043 460.435 182.274C458.585 180.947 456.54 179.548 454.949 178.3C455.428 176.583 455.789 174.804 456.003 172.99C457.949 172.459 460.374 171.955 462.595 171.424ZM421.63 139.992C433.214 140.558 442.976 148.009 446.948 158.337L428.364 163.993C426.984 161.542 424.524 159.78 421.63 159.339V139.993V139.992ZM423.578 168.601C423.578 170.468 422.065 171.982 420.206 171.982C418.348 171.982 416.826 170.468 416.826 168.601C416.826 166.734 418.339 165.221 420.206 165.221C422.073 165.221 423.578 166.734 423.578 168.601ZM418.772 139.992V159.337C415.931 159.77 413.525 161.469 412.118 163.851L393.517 158.178C397.525 147.93 407.25 140.558 418.772 139.993V139.992ZM401.1 189.947C395.242 184.699 391.552 177.089 391.552 168.603C391.552 165.931 391.932 163.347 392.614 160.903L411.055 166.514C410.905 167.187 410.817 167.877 410.817 168.594C410.817 170.877 411.63 172.966 412.977 174.586L401.101 189.949L401.1 189.947ZM420.198 197.248C413.888 197.248 408.066 195.203 403.33 191.752L415.126 176.485C416.596 177.432 418.329 177.98 420.206 177.98C421.958 177.98 423.595 177.493 425.002 176.653L436.666 192.034C432.012 195.317 426.33 197.246 420.198 197.246V197.248ZM438.922 190.274L427.206 174.823C428.684 173.167 429.587 170.991 429.587 168.593C429.587 167.938 429.516 167.292 429.384 166.672L447.834 161.052C448.489 163.458 448.852 165.99 448.852 168.601C448.852 177.265 445.003 185.017 438.924 190.274H438.922Z" fill="#004627"/>
<path d="M502.911 111.861C502.97 111.086 503 110.295 503 109.495C503 108.696 502.97 107.92 502.911 107.137C501.056 106.701 499.031 106.28 497.405 105.822C497.227 104.315 496.924 102.836 496.525 101.395C497.855 100.353 499.563 99.1843 501.107 98.0754C500.604 96.6048 500.014 95.171 499.333 93.7881C497.448 94.0918 495.416 94.4831 493.745 94.6823C492.99 93.3671 492.155 92.1169 491.225 90.9346C492.052 89.4555 493.184 87.7265 494.188 86.1076C493.161 84.9394 492.059 83.8389 490.891 82.8105C489.272 83.8234 487.55 84.9535 486.071 85.7827C484.881 84.8518 483.632 84.0085 482.317 83.2626C482.523 81.5844 482.909 79.5516 483.218 77.6742C481.828 76.9863 480.394 76.3958 478.924 75.8929C477.815 77.4383 476.647 79.1533 475.604 80.4755C474.17 80.0757 472.691 79.7805 471.177 79.5954C470.719 77.9765 470.305 75.9508 469.862 74.089C469.086 74.0367 468.302 74 467.504 74C466.706 74 465.922 74.0367 465.138 74.089C464.695 75.9522 464.281 77.9765 463.83 79.5954C462.314 79.7805 460.83 80.0757 459.395 80.4755C458.345 79.1518 457.192 77.4369 456.076 75.8929C454.597 76.3958 453.171 76.9863 451.782 77.6742C452.1 79.5516 452.491 81.5844 452.692 83.2626C451.368 84.0085 450.119 84.8518 448.929 85.7827C447.458 84.9549 445.728 83.8234 444.109 82.8105C442.941 83.8375 441.84 84.9394 440.812 86.1076C441.818 87.7265 442.948 89.4555 443.775 90.9346C442.852 92.1169 442.008 93.3671 441.262 94.6823C439.584 94.4831 437.552 94.0904 435.667 93.7881C434.986 95.171 434.396 96.6048 433.893 98.0754C435.445 99.1843 437.153 100.353 438.484 101.395C438.077 102.836 437.789 104.315 437.597 105.822C435.971 106.28 433.945 106.702 432.089 107.137C432.038 107.921 432 108.712 432 109.495C432 110.278 432.037 111.084 432.089 111.861C433.944 112.305 435.969 112.726 437.597 113.169C437.789 114.685 438.077 116.17 438.484 117.605C437.153 118.647 435.445 119.816 433.893 120.925C434.396 122.404 434.986 123.837 435.667 125.219C437.552 124.908 439.584 124.517 441.262 124.318C442.008 125.633 442.852 126.89 443.775 128.073C442.948 129.543 441.816 131.274 440.812 132.892C441.839 134.068 442.941 135.161 444.109 136.189C445.728 135.184 447.457 134.054 448.929 133.226C450.119 134.157 451.368 135 452.692 135.739C452.493 137.417 452.1 139.45 451.782 141.334C453.172 142.014 454.599 142.606 456.076 143.116C457.185 141.563 458.345 139.848 459.395 138.525C460.828 138.923 462.314 139.22 463.83 139.405C464.281 141.031 464.695 143.056 465.138 144.911C465.922 144.963 466.705 145 467.504 145C468.304 145 469.086 144.963 469.862 144.911C470.305 143.056 470.719 141.031 471.177 139.405C472.693 139.22 474.17 138.924 475.604 138.525C476.647 139.848 477.815 141.563 478.924 143.116C480.394 142.606 481.828 142.014 483.218 141.334C482.907 139.45 482.523 137.417 482.317 135.739C483.632 135 484.882 134.157 486.071 133.226C487.55 134.054 489.272 135.185 490.891 136.189C492.059 135.162 493.16 134.068 494.188 132.892C493.182 131.274 492.052 129.544 491.225 128.073C492.155 126.89 492.992 125.633 493.745 124.318C495.416 124.525 497.448 124.91 499.333 125.219C500.012 123.836 500.604 122.402 501.107 120.925C499.562 119.816 497.854 118.647 496.525 117.605C496.924 116.171 497.227 114.685 497.405 113.169C499.031 112.726 501.056 112.305 502.911 111.861ZM468.694 85.6061C478.37 86.0794 486.523 92.3034 489.842 100.93L474.319 105.654C473.166 103.607 471.111 102.135 468.694 101.767V85.6075V85.6061ZM470.321 109.504C470.321 111.063 469.057 112.327 467.504 112.327C465.952 112.327 464.68 111.063 464.68 109.504C464.68 107.944 465.945 106.68 467.504 106.68C469.064 106.68 470.321 107.944 470.321 109.504ZM466.306 85.6061V101.765C463.933 102.127 461.923 103.546 460.748 105.535L445.211 100.798C448.558 92.237 456.682 86.0794 466.306 85.6075V85.6061ZM451.545 127.334C446.651 122.95 443.569 116.594 443.569 109.505C443.569 107.273 443.887 105.115 444.456 103.073L459.861 107.76C459.735 108.323 459.661 108.899 459.661 109.498C459.661 111.405 460.341 113.15 461.465 114.503L451.546 127.335L451.545 127.334ZM467.497 133.432C462.227 133.432 457.363 131.724 453.408 128.841L463.261 116.089C464.488 116.88 465.936 117.338 467.504 117.338C468.968 117.338 470.335 116.931 471.51 116.229L481.253 129.077C477.366 131.819 472.619 133.431 467.497 133.431V133.432ZM483.137 127.606L473.351 114.701C474.586 113.318 475.34 111.5 475.34 109.496C475.34 108.95 475.281 108.41 475.17 107.892L490.582 103.198C491.129 105.208 491.432 107.322 491.432 109.504C491.432 116.74 488.217 123.216 483.139 127.606H483.137Z" fill="#52C491"/>
<path d="M519.93 170.862C519.977 170.251 520 169.627 520 168.996C520 168.365 519.977 167.754 519.93 167.137C518.467 166.792 516.869 166.46 515.587 166.099C515.446 164.91 515.208 163.744 514.893 162.607C515.942 161.785 517.289 160.864 518.507 159.989C518.11 158.829 517.645 157.698 517.108 156.607C515.621 156.847 514.018 157.156 512.7 157.313C512.105 156.275 511.447 155.289 510.712 154.357C511.365 153.19 512.258 151.827 513.05 150.55C512.24 149.628 511.371 148.76 510.449 147.949C509.173 148.748 507.814 149.639 506.648 150.293C505.709 149.559 504.724 148.894 503.686 148.306C503.849 146.982 504.153 145.379 504.397 143.898C503.301 143.355 502.17 142.89 501.01 142.493C500.136 143.712 499.214 145.065 498.392 146.107C497.261 145.792 496.095 145.559 494.9 145.413C494.539 144.136 494.213 142.539 493.863 141.07C493.251 141.029 492.633 141 492.003 141C491.374 141 490.755 141.029 490.137 141.07C489.787 142.54 489.461 144.136 489.105 145.413C487.91 145.559 486.739 145.792 485.607 146.107C484.779 145.063 483.87 143.711 482.99 142.493C481.823 142.89 480.698 143.355 479.603 143.898C479.853 145.379 480.162 146.982 480.32 148.306C479.276 148.894 478.291 149.559 477.352 150.293C476.192 149.64 474.827 148.748 473.551 147.949C472.629 148.759 471.761 149.628 470.95 150.55C471.743 151.827 472.635 153.19 473.288 154.357C472.559 155.289 471.894 156.275 471.306 157.313C469.982 157.156 468.379 156.846 466.892 156.607C466.355 157.698 465.89 158.829 465.493 159.989C466.717 160.864 468.064 161.785 469.114 162.607C468.793 163.744 468.566 164.91 468.414 166.099C467.132 166.46 465.534 166.793 464.07 167.137C464.03 167.755 464 168.379 464 168.996C464 169.613 464.029 170.25 464.07 170.862C465.533 171.212 467.131 171.544 468.414 171.894C468.566 173.09 468.793 174.261 469.114 175.393C468.064 176.215 466.717 177.136 465.493 178.011C465.89 179.178 466.355 180.308 466.892 181.398C468.379 181.153 469.982 180.844 471.306 180.687C471.894 181.725 472.559 182.716 473.288 183.649C472.635 184.809 471.742 186.173 470.95 187.45C471.76 188.377 472.629 189.24 473.551 190.051C474.827 189.258 476.191 188.366 477.352 187.713C478.291 188.448 479.276 189.113 480.32 189.695C480.163 191.019 479.853 192.622 479.603 194.109C480.699 194.645 481.824 195.111 482.99 195.514C483.864 194.289 484.779 192.937 485.607 191.893C486.738 192.207 487.91 192.441 489.105 192.587C489.461 193.869 489.787 195.467 490.137 196.93C490.755 196.971 491.373 197 492.003 197C492.634 197 493.251 196.971 493.863 196.93C494.213 195.467 494.539 193.869 494.9 192.587C496.096 192.441 497.261 192.208 498.392 191.893C499.214 192.937 500.136 194.289 501.01 195.514C502.17 195.111 503.301 194.645 504.397 194.109C504.152 192.622 503.849 191.019 503.686 189.695C504.724 189.113 505.71 188.448 506.648 187.713C507.814 188.366 509.173 189.259 510.449 190.051C511.371 189.241 512.239 188.377 513.05 187.45C512.257 186.173 511.365 184.81 510.712 183.649C511.447 182.716 512.106 181.725 512.7 180.687C514.018 180.851 515.621 181.154 517.108 181.398C517.644 180.307 518.11 179.176 518.507 178.011C517.288 177.136 515.941 176.215 514.893 175.393C515.208 174.262 515.446 173.09 515.587 171.894C516.869 171.544 518.467 171.212 519.93 170.862ZM492.941 150.154C500.573 150.527 507.004 155.436 509.622 162.241L497.378 165.967C496.469 164.352 494.848 163.191 492.941 162.9V150.155V150.154ZM494.225 169.003C494.225 170.233 493.228 171.23 492.003 171.23C490.779 171.23 489.776 170.233 489.776 169.003C489.776 167.773 490.773 166.776 492.003 166.776C493.233 166.776 494.225 167.773 494.225 169.003ZM491.059 150.154V162.899C489.187 163.185 487.601 164.304 486.674 165.873L474.42 162.136C477.06 155.384 483.468 150.527 491.059 150.155V150.154ZM479.416 183.066C475.556 179.609 473.125 174.595 473.125 169.004C473.125 167.243 473.376 165.541 473.825 163.931L485.975 167.628C485.875 168.071 485.818 168.526 485.818 168.998C485.818 170.502 486.353 171.878 487.24 172.946L479.417 183.067L479.416 183.066ZM491.998 187.876C487.841 187.876 484.005 186.529 480.885 184.255L488.656 174.197C489.625 174.821 490.767 175.182 492.003 175.182C493.158 175.182 494.236 174.861 495.163 174.307L502.847 184.441C499.781 186.604 496.038 187.875 491.998 187.875V187.876ZM504.334 183.281L496.615 173.102C497.589 172.011 498.184 170.577 498.184 168.997C498.184 168.566 498.137 168.14 498.05 167.732L510.205 164.029C510.637 165.615 510.876 167.282 510.876 169.003C510.876 174.711 508.34 179.818 504.335 183.281H504.334Z" fill="#008441"/>
<path d="M336.361 169.133C322.455 169.133 314.174 157.844 314.174 139.758C314.174 121.75 322.533 110.5 336.361 110.5C350.15 110.5 358.471 121.672 358.471 139.719C358.471 157.766 350.229 169.133 336.361 169.133ZM336.361 160.891C343.979 160.891 348.314 153.117 348.314 139.758C348.314 126.555 343.9 118.742 336.361 118.742C328.783 118.742 324.33 126.594 324.33 139.719C324.33 153.078 328.705 160.891 336.361 160.891Z" fill="#004627"/>
<path d="M286.945 169.133C273.039 169.133 264.758 157.844 264.758 139.758C264.758 121.75 273.117 110.5 286.945 110.5C300.734 110.5 309.055 121.672 309.055 139.719C309.055 157.766 300.812 169.133 286.945 169.133ZM286.945 160.891C294.562 160.891 298.898 153.117 298.898 139.758C298.898 126.555 294.484 118.742 286.945 118.742C279.367 118.742 274.914 126.594 274.914 139.719C274.914 153.078 279.289 160.891 286.945 160.891Z" fill="#004627"/>
<path d="M239.17 169.133C230.498 169.133 222.998 164.992 220.225 158.859C219.678 157.648 219.326 156.477 219.326 155.031C219.326 152.414 221.006 150.773 223.662 150.773C225.771 150.773 227.061 151.594 228.115 153.664C230.029 158.234 233.779 160.93 239.209 160.93C245.889 160.93 250.615 156.203 250.615 149.523C250.615 143.039 245.889 138.43 239.248 138.43C235.693 138.43 232.607 139.875 230.459 141.984C228.115 144.328 227.139 144.836 224.834 144.836C221.592 144.836 219.99 142.531 220.068 139.797C220.068 139.562 220.068 139.406 220.107 139.172L221.904 117.883C222.256 113.43 224.521 111.633 228.936 111.633H253.232C255.811 111.633 257.49 113.273 257.49 115.734C257.49 118.234 255.811 119.875 253.232 119.875H230.459L228.975 136.555H229.17C231.553 133.039 236.201 130.852 241.865 130.852C252.646 130.852 260.342 138.469 260.342 149.25C260.342 161.047 251.67 169.133 239.17 169.133Z" fill="#004627"/>
</svg>
