<svg xmlns="http://www.w3.org/2000/svg" viewBox="0 0 100 101" fill="none">
  <path fill="#144D30" fill-rule="evenodd" d="M95.928 20.2C111.238 47.133 80.618 101 50 101c-30.618 0-61.238-53.867-45.928-80.8 15.31-26.933 76.537-26.933 91.856 0Z" clip-rule="evenodd"/>
  <path fill="url(#a)" fill-rule="evenodd" d="M95.085 20.642C91.127 13.676 84.168 8.97 76.98 5.99a75.427 75.427 0 0 0-53.955 0C15.829 8.967 8.874 13.676 4.92 20.642-9.964 46.825 20.253 100 50.006 100c7.918 0 15.406-3.767 21.542-8.607a73.446 73.446 0 0 0 17.746-21.249 74.543 74.543 0 0 0 9.237-26.24c1.05-7.819.515-16.293-3.446-23.262Z" clip-rule="evenodd"/>
  <path fill="#FEFEFE" fill-rule="evenodd" d="M89.008 24.172c-3.154-5.568-9.014-9.333-14.724-11.706a68.134 68.134 0 0 0-48.524 0c-5.71 2.371-11.57 6.131-14.724 11.706C-1.146 45.679 25.666 93 50.023 93c6.308 0 12.438-3.29 17.307-7.145a66.237 66.237 0 0 0 15.928-19.182 67.38 67.38 0 0 0 8.335-23.65c.836-6.222.57-13.283-2.583-18.853v.002h-.002Z" clip-rule="evenodd"/>
  <path fill="#144D30" fill-rule="evenodd" d="M50.06 1.004c10.552 0 20.365 5.25 28.031 13.173a43.486 43.486 0 0 0-3.694-1.736 68.386 68.386 0 0 0-48.671 0 44.62 44.62 0 0 0-3.837 1.805C29.59 6.283 39.457 1 50.06 1v.006l.002-.002Zm42.075 37.743c2.996 10.75 2.583 22.018-2.705 31.183C84.52 78.455 75.94 84.13 66.108 87c.447-.33.88-.661 1.31-.997a66.403 66.403 0 0 0 15.975-19.226 67.499 67.499 0 0 0 8.36-23.705c.191-1.407.323-2.853.38-4.319l.002-.006Zm-58.506 48.01a39.24 39.24 0 0 1-23.123-17.144C5.242 60.484 4.875 49.23 7.932 38.501c.561 16.839 11.934 37.877 25.697 48.255Z" clip-rule="evenodd"/>
  <path fill="url(#b)" fill-rule="evenodd" d="M50 1.002A31.434 31.434 0 0 0 31.131 8.48C18.548 18.884 10.148 33.546 7.498 49.732a32.064 32.064 0 0 0 3.008 20.209c13.032 22.745 65.955 22.745 78.987 0a32.076 32.076 0 0 0 3.01-20.21c-2.65-16.187-11.05-30.85-23.636-41.254A31.47 31.47 0 0 0 50 1v.002Z" clip-rule="evenodd"/>
  <path fill="#FEFEFE" fill-rule="evenodd" d="M49.996 7a25.826 25.826 0 0 0-15.219 6.225c-11.333 9.438-18.911 22.687-21.343 37.313a26.41 26.41 0 0 0 2.272 16.415c10.72 18.73 57.876 18.73 68.588 0a26.41 26.41 0 0 0 2.272-16.415c-2.432-14.626-10.01-27.875-21.343-37.313A25.814 25.814 0 0 0 50.004 7h-.008Z" clip-rule="evenodd"/>
  <path fill="#144D30" fill-rule="evenodd" d="M49.126 16.004c-3.055 0-6.904 2.389-9.254 4.177-10.144 8.32-17.05 19.889-19.53 32.717-.445 2.892-.691 7.366.795 9.99C25.13 69.938 41.007 72 48.267 72c7.26 0 23.197-2.062 27.408-9.112 1.567-2.626 1.46-7.098 1.102-9.99-2.043-12.752-8.614-24.358-18.525-32.719C55.957 18.391 52.18 16 49.126 16l-.002.002.002.002Z" clip-rule="evenodd"/>
  <path fill="url(#c)" fill-rule="evenodd" d="M49.998 16.006c-3 0-6.747 2.39-9.028 4.18C31.118 28.523 24.496 40.11 22.274 52.9c-.393 2.891-.568 7.365.933 9.989C27.237 69.94 42.872 72 50.001 72c7.128 0 22.763-2.06 26.793-9.111 1.501-2.626 1.324-7.1.933-9.99-2.221-12.791-8.843-24.38-18.696-32.72C56.74 18.39 53 16 50.002 16l-.004.006Z" clip-rule="evenodd"/>
  <path fill="#60BB51" fill-rule="evenodd" d="M49.997 18c-2.94 0-6.614 2.265-8.847 3.96A46.474 46.474 0 0 0 31 33a46.623 46.623 0 0 1 9.304-8.704c2.45-1.695 6.472-3.958 9.697-3.958 3.225 0 7.245 2.265 9.697 3.957A46.57 46.57 0 0 1 69 33a46.448 46.448 0 0 0-10.148-11.038C56.608 20.265 52.935 18 49.997 18Z" clip-rule="evenodd"/>
  <path fill="#FEFEFE" d="M61 59V33h-5.962v13.122L43.944 33H39v26h5.964V45.733L56.162 59H61Z"/>
  <defs>
    <radialGradient id="a" cx="0" cy="0" r="1" gradientTransform="matrix(48.4125 0 0 48.9061 49.902 50.5)" gradientUnits="userSpaceOnUse">
      <stop stop-color="#144D30"/>
      <stop offset=".259" stop-color="#144D30"/>
      <stop offset=".404" stop-color="#2F834A"/>
      <stop offset="1" stop-color="#4AB864"/>
    </radialGradient>
    <radialGradient id="b" cx="0" cy="0" r="1" gradientTransform="matrix(32.5941 0 0 32.5939 50 50.88)" gradientUnits="userSpaceOnUse">
      <stop stop-color="#60BB51"/>
      <stop offset="1" stop-color="#268646"/>
    </radialGradient>
    <radialGradient id="c" cx="0" cy="0" r="1" gradientTransform="matrix(36.008 0 0 36.0068 50 46.24)" gradientUnits="userSpaceOnUse">
      <stop stop-color="#60BB51"/>
      <stop offset="1" stop-color="#1E6536"/>
    </radialGradient>
  </defs>
</svg>
